<svg width="289" height="56" viewBox="0 0 289 56" fill="none" xmlns="http://www.w3.org/2000/svg">
<path d="M47 28C47 32.1251 45.9158 36.1776 43.8564 39.75C41.797 43.3225 38.8349 46.289 35.2679 48.3516C31.7008 50.4142 27.6546 51.5 23.5357 51.5C19.4169 51.5 15.3706 50.4142 11.8036 48.3516L14.509 43.6585C17.2535 45.2455 20.3667 46.0809 23.5357 46.0809C26.7048 46.0809 29.818 45.2455 32.5624 43.6585C35.3069 42.0716 37.5859 39.7891 39.1705 37.0405C40.755 34.2918 41.5891 31.1739 41.5891 28H47Z" fill="white"/>
<path d="M6.87252 44.7363C3.96006 41.8194 1.86556 38.1861 0.799525 34.2015C-0.266509 30.217 -0.266508 26.0216 0.799526 22.037C1.86556 18.0525 3.96007 14.4192 6.87252 11.5023C9.78498 8.58539 13.4128 6.4877 17.3913 5.42004L18.7917 10.6545C15.7306 11.4759 12.9394 13.0899 10.6986 15.3342C8.45773 17.5784 6.84621 20.3739 6.02601 23.4396C5.2058 26.5053 5.2058 29.7333 6.02601 32.799C6.84621 35.8647 8.45773 38.6602 10.6986 40.9044L6.87252 44.7363Z" fill="white"/>
<path d="M23.5357 4.5C28.7428 4.5 33.8019 6.23465 37.9164 9.43079C42.0309 12.6269 44.967 17.1029 46.2624 22.154L41.0216 23.5021C40.025 19.6158 37.7659 16.1719 34.6002 13.7128C31.4345 11.2537 27.542 9.91909 23.5357 9.91909V4.5Z" fill="white"/>
<path d="M23.8917 42.0761C21.8613 42.0761 20.0419 41.7498 18.4334 41.0973C16.8249 40.4447 15.5329 39.4789 14.5572 38.1998C13.608 36.9207 13.107 35.3807 13.0542 33.5795H20.2529C20.3583 34.5976 20.7143 35.3807 21.3208 35.9288C21.9273 36.4509 22.7183 36.7119 23.6939 36.7119C24.696 36.7119 25.487 36.49 26.0671 36.0463C26.6472 35.5764 26.9373 34.9369 26.9373 34.1277C26.9373 33.449 26.7 32.8878 26.2253 32.4441C25.7771 32.0003 25.2101 31.6349 24.5246 31.3477C23.8653 31.0606 22.9161 30.7343 21.6768 30.3689C19.8837 29.8207 18.4202 29.2725 17.2864 28.7244C16.1525 28.1762 15.1769 27.367 14.3595 26.2968C13.5421 25.2265 13.1333 23.83 13.1333 22.1072C13.1333 19.5491 14.0694 17.5522 15.9416 16.1165C17.8138 14.6548 20.2529 13.9239 23.2589 13.9239C26.3176 13.9239 28.7831 14.6548 30.6552 16.1165C32.5274 17.5522 33.5294 19.5621 33.6613 22.1464H26.344C26.2913 21.2589 25.9616 20.5671 25.3552 20.0712C24.7487 19.5491 23.9708 19.2881 23.0215 19.2881C22.2041 19.2881 21.5449 19.5099 21.0439 19.9537C20.5429 20.3713 20.2924 20.9848 20.2924 21.794C20.2924 22.6815 20.7143 23.3732 21.5581 23.8692C22.4019 24.3651 23.7203 24.9002 25.5134 25.4745C27.3064 26.0749 28.7567 26.6492 29.8642 27.1973C30.998 27.7455 31.9737 28.5416 32.7911 29.5858C33.6085 30.6299 34.0172 31.9742 34.0172 33.6187C34.0172 35.1849 33.6085 36.6075 32.7911 37.8866C32 39.1656 30.8398 40.1836 29.3105 40.9406C27.7811 41.6976 25.9748 42.0761 23.8917 42.0761Z" fill="white"/>
<path d="M66.5892 28.6978C65.1894 28.6978 63.8494 28.5015 62.5691 28.1088C61.2888 27.6991 60.2731 27.1785 59.522 26.5469L60.6742 23.9607C61.3912 24.524 62.2789 24.9934 63.3372 25.369C64.3956 25.7446 65.4796 25.9323 66.5892 25.9323C67.5281 25.9323 68.2877 25.8299 68.8681 25.6251C69.4485 25.4202 69.8753 25.1471 70.1484 24.8057C70.4215 24.4472 70.5581 24.046 70.5581 23.6022C70.5581 23.0559 70.3618 22.6206 69.9692 22.2963C69.5765 21.9549 69.0644 21.6903 68.4328 21.5025C67.8183 21.2977 67.1269 21.1099 66.3587 20.9392C65.6076 20.7685 64.848 20.5722 64.0798 20.3502C63.3287 20.1113 62.6374 19.8125 62.0057 19.454C61.3912 19.0785 60.8876 18.5834 60.495 17.9689C60.1024 17.3544 59.9061 16.5691 59.9061 15.6132C59.9061 14.6401 60.1621 13.7525 60.6742 12.9502C61.2034 12.1308 61.9972 11.4821 63.0556 11.0041C64.131 10.5091 65.4881 10.2615 67.1269 10.2615C68.2024 10.2615 69.2693 10.3981 70.3277 10.6712C71.386 10.9444 72.3078 11.337 73.0931 11.8491L72.0432 14.4353C71.2409 13.9573 70.413 13.6074 69.5595 13.3855C68.7059 13.1465 67.8866 13.027 67.1013 13.027C66.1795 13.027 65.4284 13.1379 64.848 13.3598C64.2847 13.5818 63.8664 13.872 63.5933 14.2304C63.3372 14.5889 63.2092 14.9986 63.2092 15.4595C63.2092 16.0058 63.397 16.4496 63.7725 16.791C64.1652 17.1154 64.6688 17.3714 65.2833 17.5592C65.9149 17.747 66.6148 17.9348 67.383 18.1225C68.1512 18.2932 68.9108 18.4896 69.6619 18.7115C70.4301 18.9334 71.1214 19.2236 71.736 19.5821C72.3676 19.9406 72.8712 20.4271 73.2467 21.0416C73.6393 21.6561 73.8357 22.4329 73.8357 23.3717C73.8357 24.3277 73.5711 25.2154 73.0419 26.0348C72.5298 26.8371 71.736 27.4858 70.6605 27.9808C69.5851 28.4588 68.228 28.6978 66.5892 28.6978Z" fill="white"/>
<path d="M84.8438 28.6978C82.3856 28.6978 80.4566 28.0064 79.0569 26.6237C77.6741 25.241 76.9828 23.2437 76.9828 20.6319V10.5176H80.3115V20.5039C80.3115 22.3475 80.7042 23.6875 81.4894 24.524C82.2917 25.3605 83.4184 25.7787 84.8694 25.7787C86.3204 25.7787 87.4385 25.3605 88.2238 24.524C89.009 23.6875 89.4016 22.3475 89.4016 20.5039V10.5176H92.6792V20.6319C92.6792 23.2437 91.9793 25.241 90.5795 26.6237C89.1968 28.0064 87.2849 28.6978 84.8438 28.6978Z" fill="white"/>
<path d="M97.341 28.4417V10.5176H104.716C106.303 10.5176 107.66 10.7737 108.787 11.2858C109.931 11.7979 110.81 12.5319 111.424 13.4879C112.039 14.4438 112.346 15.579 112.346 16.8935C112.346 18.2079 112.039 19.3431 111.424 20.299C110.81 21.255 109.931 21.989 108.787 22.5011C107.66 23.0133 106.303 23.2693 104.716 23.2693H99.1847L100.67 21.7074V28.4417H97.341ZM100.67 22.0658L99.1847 20.4527H104.562C106.03 20.4527 107.131 20.1454 107.865 19.5309C108.616 18.8993 108.992 18.0201 108.992 16.8935C108.992 15.7497 108.616 14.8706 107.865 14.2561C107.131 13.6415 106.03 13.3342 104.562 13.3342H99.1847L100.67 11.6955V22.0658Z" fill="white"/>
<path d="M118.743 17.9689H127.654V20.7087H118.743V17.9689ZM118.999 25.6507H129.113V28.4417H115.67V10.5176H128.755V13.3086H118.999V25.6507Z" fill="white"/>
<path d="M132.824 28.4417V10.5176H140.199C141.786 10.5176 143.143 10.7737 144.27 11.2858C145.414 11.7979 146.293 12.5319 146.907 13.4879C147.522 14.4438 147.829 15.579 147.829 16.8935C147.829 18.2079 147.522 19.3431 146.907 20.299C146.293 21.2379 145.414 21.9634 144.27 22.4755C143.143 22.9706 141.786 23.2181 140.199 23.2181H134.668L136.153 21.7074V28.4417H132.824ZM144.552 28.4417L140.019 21.9378H143.579L148.136 28.4417H144.552ZM136.153 22.0658L134.668 20.4783H140.045C141.513 20.4783 142.614 20.1625 143.348 19.5309C144.099 18.8993 144.475 18.0201 144.475 16.8935C144.475 15.7497 144.099 14.8706 143.348 14.2561C142.614 13.6415 141.513 13.3342 140.045 13.3342H134.668L136.153 11.6955V22.0658Z" fill="white"/>
<path d="M154.939 28.4417V13.3342H148.999V10.5176H164.209V13.3342H158.268V28.4417H154.939Z" fill="white"/>
<path d="M166.707 28.4417V10.5176H170.036V28.4417H166.707Z" fill="white"/>
<path d="M174.884 28.4417V10.5176H177.624L185.459 23.6022H184.025L191.732 10.5176H194.472L194.498 28.4417H191.348L191.323 15.4595H191.989L185.433 26.3932H183.948L177.291 15.4595H178.059V28.4417H174.884Z" fill="white"/>
<path d="M202.412 17.9689H211.323V20.7087H202.412V17.9689ZM202.668 25.6507H212.783V28.4417H199.339V10.5176H212.424V13.3086H202.668V25.6507Z" fill="white"/>
<path d="M215.136 28.4417V26.214L226.71 12.0796L227.094 13.3342H215.316V10.5176H230.09V12.7453L218.516 26.8797L218.107 25.6251H230.423V28.4417H215.136Z" fill="white"/>
<path d="M241.671 28.6978C240.271 28.6978 238.982 28.4673 237.804 28.0064C236.627 27.5455 235.602 26.9054 234.732 26.086C233.861 25.2495 233.187 24.2765 232.709 23.1669C232.231 22.0402 231.992 20.8112 231.992 19.4796C231.992 18.1481 232.231 16.9276 232.709 15.818C233.187 14.6914 233.861 13.7183 234.732 12.8989C235.602 12.0625 236.627 11.4138 237.804 10.9529C238.982 10.492 240.263 10.2615 241.645 10.2615C243.045 10.2615 244.325 10.492 245.486 10.9529C246.664 11.4138 247.688 12.0625 248.559 12.8989C249.43 13.7183 250.104 14.6914 250.582 15.818C251.06 16.9276 251.299 18.1481 251.299 19.4796C251.299 20.8112 251.06 22.0402 250.582 23.1669C250.104 24.2936 249.43 25.2666 248.559 26.086C247.688 26.9054 246.664 27.5455 245.486 28.0064C244.325 28.4673 243.054 28.6978 241.671 28.6978ZM241.645 25.7787C242.55 25.7787 243.387 25.6251 244.155 25.3178C244.923 25.0105 245.589 24.5752 246.152 24.0119C246.715 23.4315 247.151 22.7657 247.458 22.0146C247.782 21.2465 247.944 20.4015 247.944 19.4796C247.944 18.5578 247.782 17.7214 247.458 16.9703C247.151 16.2021 246.715 15.5363 246.152 14.973C245.589 14.3926 244.923 13.9488 244.155 13.6415C243.387 13.3342 242.55 13.1806 241.645 13.1806C240.741 13.1806 239.904 13.3342 239.136 13.6415C238.385 13.9488 237.719 14.3926 237.139 14.973C236.575 15.5363 236.132 16.2021 235.807 16.9703C235.5 17.7214 235.346 18.5578 235.346 19.4796C235.346 20.3844 235.5 21.2208 235.807 21.989C236.132 22.7572 236.575 23.4315 237.139 24.0119C237.702 24.5752 238.368 25.0105 239.136 25.3178C239.904 25.6251 240.741 25.7787 241.645 25.7787Z" fill="white"/>
<path d="M254.827 28.4417V10.5176H257.567L268.808 24.3192H267.451V10.5176H270.754V28.4417H268.014L256.773 14.6401H258.13V28.4417H254.827Z" fill="white"/>
<path d="M278.63 17.9689H287.54V20.7087H278.63V17.9689ZM278.886 25.6507H289V28.4417H275.557V10.5176H288.642V13.3086H278.886V25.6507Z" fill="white"/>
<path d="M62.6408 45.604L59.522 36.1939H61.3368L64.1195 44.7034H63.2188L66.1091 36.1939H67.7223L70.5319 44.7034H69.6581L72.508 36.1939H74.1749L71.0561 45.604H69.201L66.6334 37.928H67.1173L64.5094 45.604H62.6408Z" fill="white" fill-opacity="0.8"/>
<path d="M81.7309 45.7385C80.996 45.7385 80.3194 45.6175 79.701 45.3755C79.0826 45.1335 78.5449 44.7975 78.0878 44.3673C77.6307 43.9281 77.2767 43.4173 77.0258 42.8348C76.7749 42.2433 76.6494 41.598 76.6494 40.899C76.6494 40.1999 76.7749 39.5591 77.0258 38.9766C77.2767 38.3851 77.6307 37.8743 78.0878 37.4441C78.5449 37.0049 79.0826 36.6644 79.701 36.4224C80.3194 36.1804 80.9915 36.0594 81.7174 36.0594C82.4523 36.0594 83.1245 36.1804 83.7339 36.4224C84.3523 36.6644 84.89 37.0049 85.3471 37.4441C85.8041 37.8743 86.1581 38.3851 86.4091 38.9766C86.66 39.5591 86.7855 40.1999 86.7855 40.899C86.7855 41.598 86.66 42.2433 86.4091 42.8348C86.1581 43.4263 85.8041 43.9371 85.3471 44.3673C84.89 44.7975 84.3523 45.1335 83.7339 45.3755C83.1245 45.6175 82.4568 45.7385 81.7309 45.7385ZM81.7174 44.206C82.1924 44.206 82.6316 44.1253 83.0349 43.964C83.4382 43.8027 83.7877 43.5741 84.0834 43.2784C84.3792 42.9737 84.6077 42.6242 84.769 42.2298C84.9393 41.8265 85.0244 41.3829 85.0244 40.899C85.0244 40.415 84.9393 39.9759 84.769 39.5815C84.6077 39.1782 84.3792 38.8287 84.0834 38.533C83.7877 38.2283 83.4382 37.9953 83.0349 37.8339C82.6316 37.6726 82.1924 37.592 81.7174 37.592C81.2425 37.592 80.8033 37.6726 80.4 37.8339C80.0057 37.9953 79.6562 38.2283 79.3515 38.533C79.0557 38.8287 78.8227 39.1782 78.6524 39.5815C78.4911 39.9759 78.4104 40.415 78.4104 40.899C78.4104 41.3739 78.4911 41.8131 78.6524 42.2164C78.8227 42.6197 79.0557 42.9737 79.3515 43.2784C79.6472 43.5741 79.9967 43.8027 80.4 43.964C80.8033 44.1253 81.2425 44.206 81.7174 44.206Z" fill="white" fill-opacity="0.8"/>
<path d="M90.4527 45.604V36.1939H94.3243C95.1578 36.1939 95.8703 36.3283 96.4618 36.5972C97.0622 36.866 97.5238 37.2514 97.8464 37.7533C98.169 38.2552 98.3304 38.8511 98.3304 39.5412C98.3304 40.2313 98.169 40.8273 97.8464 41.3291C97.5238 41.8221 97.0622 42.2029 96.4618 42.4718C95.8703 42.7317 95.1578 42.8616 94.3243 42.8616H91.4206L92.2003 42.0685V45.604H90.4527ZM96.6097 45.604L94.2302 42.1895H96.0988L98.4917 45.604H96.6097ZM92.2003 42.2567L91.4206 41.4232H94.2437C95.0144 41.4232 95.5925 41.2574 95.9778 40.9258C96.3722 40.5942 96.5693 40.1327 96.5693 39.5412C96.5693 38.9407 96.3722 38.4792 95.9778 38.1566C95.5925 37.8339 95.0144 37.6726 94.2437 37.6726H91.4206L92.2003 36.8123V42.2567Z" fill="white" fill-opacity="0.8"/>
<path d="M102.1 45.604V36.1939H103.848V44.1253H108.768V45.604H102.1Z" fill="white" fill-opacity="0.8"/>
<path d="M111.963 45.604V36.1939H116.076C117.098 36.1939 117.994 36.391 118.765 36.7854C119.536 37.1797 120.136 37.7264 120.566 38.4254C120.996 39.1245 121.212 39.949 121.212 40.899C121.212 41.84 120.996 42.6645 120.566 43.3725C120.136 44.0715 119.536 44.6182 118.765 45.0125C117.994 45.4069 117.098 45.604 116.076 45.604H111.963ZM113.71 44.1253H115.996C116.704 44.1253 117.313 43.9909 117.824 43.722C118.344 43.4531 118.742 43.0767 119.02 42.5928C119.307 42.1088 119.451 41.5442 119.451 40.899C119.451 40.2447 119.307 39.6801 119.02 39.2051C118.742 38.7212 118.344 38.3448 117.824 38.0759C117.313 37.807 116.704 37.6726 115.996 37.6726H113.71V44.1253Z" fill="white" fill-opacity="0.8"/>
<path d="M132.323 45.604V37.6726H129.204V36.1939H137.189V37.6726H134.07V45.604H132.323Z" fill="white" fill-opacity="0.8"/>
<path d="M140.316 45.604V36.1939H142.063V45.604H140.316Z" fill="white" fill-opacity="0.8"/>
<path d="M146.423 45.604V36.1939H147.862L151.975 43.0633H151.222L155.269 36.1939H156.707L156.721 45.604H155.067L155.054 38.7884H155.403L151.962 44.5286H151.182L147.687 38.7884H148.09V45.604H146.423Z" fill="white" fill-opacity="0.8"/>
<path d="M162.69 40.1058H167.369V41.5442H162.69V40.1058ZM162.825 44.1387H168.135V45.604H161.077V36.1939H167.947V37.6592H162.825V44.1387Z" fill="white" fill-opacity="0.8"/>
<path d="M181.783 45.7385C181.066 45.7385 180.399 45.622 179.78 45.3889C179.171 45.147 178.638 44.8109 178.181 44.3807C177.733 43.9416 177.383 43.4263 177.132 42.8348C176.881 42.2433 176.756 41.598 176.756 40.899C176.756 40.1999 176.881 39.5546 177.132 38.9632C177.383 38.3717 177.737 37.8608 178.194 37.4306C178.651 36.9915 179.184 36.6554 179.794 36.4224C180.403 36.1804 181.071 36.0594 181.797 36.0594C182.568 36.0594 183.271 36.1939 183.907 36.4627C184.544 36.7226 185.081 37.1125 185.521 37.6323L184.391 38.6943C184.051 38.3268 183.67 38.0535 183.249 37.8743C182.828 37.6861 182.37 37.592 181.878 37.592C181.385 37.592 180.932 37.6726 180.52 37.8339C180.116 37.9953 179.762 38.2238 179.458 38.5195C179.162 38.8153 178.929 39.1648 178.759 39.5681C178.597 39.9714 178.517 40.415 178.517 40.899C178.517 41.3829 178.597 41.8265 178.759 42.2298C178.929 42.6331 179.162 42.9826 179.458 43.2784C179.762 43.5741 180.116 43.8027 180.52 43.964C180.932 44.1253 181.385 44.206 181.878 44.206C182.37 44.206 182.828 44.1163 183.249 43.9371C183.67 43.7489 184.051 43.4666 184.391 43.0902L185.521 44.1656C185.081 44.6765 184.544 45.0663 183.907 45.3352C183.271 45.604 182.563 45.7385 181.783 45.7385Z" fill="white" fill-opacity="0.8"/>
<path d="M193.222 45.7385C192.487 45.7385 191.811 45.6175 191.192 45.3755C190.574 45.1335 190.036 44.7975 189.579 44.3673C189.122 43.9281 188.768 43.4173 188.517 42.8348C188.266 42.2433 188.141 41.598 188.141 40.899C188.141 40.1999 188.266 39.5591 188.517 38.9766C188.768 38.3851 189.122 37.8743 189.579 37.4441C190.036 37.0049 190.574 36.6644 191.192 36.4224C191.811 36.1804 192.483 36.0594 193.209 36.0594C193.944 36.0594 194.616 36.1804 195.225 36.4224C195.844 36.6644 196.381 37.0049 196.839 37.4441C197.296 37.8743 197.65 38.3851 197.901 38.9766C198.151 39.5591 198.277 40.1999 198.277 40.899C198.277 41.598 198.151 42.2433 197.901 42.8348C197.65 43.4263 197.296 43.9371 196.839 44.3673C196.381 44.7975 195.844 45.1335 195.225 45.3755C194.616 45.6175 193.948 45.7385 193.222 45.7385ZM193.209 44.206C193.684 44.206 194.123 44.1253 194.526 43.964C194.93 43.8027 195.279 43.5741 195.575 43.2784C195.871 42.9737 196.099 42.6242 196.26 42.2298C196.431 41.8265 196.516 41.3829 196.516 40.899C196.516 40.415 196.431 39.9759 196.26 39.5815C196.099 39.1782 195.871 38.8287 195.575 38.533C195.279 38.2283 194.93 37.9953 194.526 37.8339C194.123 37.6726 193.684 37.592 193.209 37.592C192.734 37.592 192.295 37.6726 191.891 37.8339C191.497 37.9953 191.148 38.2283 190.843 38.533C190.547 38.8287 190.314 39.1782 190.144 39.5815C189.983 39.9759 189.902 40.415 189.902 40.899C189.902 41.3739 189.983 41.8131 190.144 42.2164C190.314 42.6197 190.547 42.9737 190.843 43.2784C191.139 43.5741 191.488 43.8027 191.891 43.964C192.295 44.1253 192.734 44.206 193.209 44.206Z" fill="white" fill-opacity="0.8"/>
<path d="M201.944 45.604V36.1939H203.383L207.496 43.0633H206.743L210.79 36.1939H212.228L212.242 45.604H210.588L210.575 38.7884H210.924L207.483 44.5286H206.703L203.208 38.7884H203.611V45.604H201.944Z" fill="white" fill-opacity="0.8"/>
<path d="M216.598 45.604V36.1939H220.47C221.303 36.1939 222.016 36.3283 222.607 36.5972C223.208 36.866 223.669 37.2514 223.992 37.7533C224.315 38.2552 224.476 38.8511 224.476 39.5412C224.476 40.2313 224.315 40.8273 223.992 41.3291C223.669 41.831 223.208 42.2164 222.607 42.4852C222.016 42.7541 221.303 42.8885 220.47 42.8885H217.566L218.346 42.0685V45.604H216.598ZM218.346 42.2567L217.566 41.4098H220.389C221.16 41.4098 221.738 41.2485 222.123 40.9258C222.518 40.5942 222.715 40.1327 222.715 39.5412C222.715 38.9407 222.518 38.4792 222.123 38.1566C221.738 37.8339 221.16 37.6726 220.389 37.6726H217.566L218.346 36.8123V42.2567Z" fill="white" fill-opacity="0.8"/>
<path d="M226.232 45.604L230.467 36.1939H232.188L236.436 45.604H234.607L230.964 37.1215H231.663L228.034 45.604H226.232ZM228.182 43.4263L228.652 42.0551H233.734L234.204 43.4263H228.182Z" fill="white" fill-opacity="0.8"/>
<path d="M239.447 45.604V36.1939H243.319C244.152 36.1939 244.865 36.3283 245.456 36.5972C246.057 36.866 246.518 37.2514 246.841 37.7533C247.164 38.2552 247.325 38.8511 247.325 39.5412C247.325 40.2313 247.164 40.8273 246.841 41.3291C246.518 41.8221 246.057 42.2029 245.456 42.4718C244.865 42.7317 244.152 42.8616 243.319 42.8616H240.415L241.195 42.0685V45.604H239.447ZM245.604 45.604L243.225 42.1895H245.093L247.486 45.604H245.604ZM241.195 42.2567L240.415 41.4232H243.238C244.009 41.4232 244.587 41.2574 244.972 40.9258C245.367 40.5942 245.564 40.1327 245.564 39.5412C245.564 38.9407 245.367 38.4792 244.972 38.1566C244.587 37.8339 244.009 37.6726 243.238 37.6726H240.415L241.195 36.8123V42.2567Z" fill="white" fill-opacity="0.8"/>
<path d="M251.095 45.604V36.1939H252.843V45.604H251.095Z" fill="white" fill-opacity="0.8"/>
<path d="M260.12 45.7385C259.385 45.7385 258.681 45.6354 258.009 45.4293C257.337 45.2142 256.804 44.9408 256.409 44.6092L257.014 43.2515C257.391 43.5472 257.857 43.7937 258.412 43.9909C258.968 44.188 259.537 44.2866 260.12 44.2866C260.613 44.2866 261.011 44.2328 261.316 44.1253C261.621 44.0178 261.845 43.8744 261.988 43.6951C262.132 43.5069 262.203 43.2963 262.203 43.0633C262.203 42.7765 262.1 42.548 261.894 42.3777C261.688 42.1985 261.419 42.0595 261.088 41.961C260.765 41.8534 260.402 41.7548 259.999 41.6652C259.604 41.5756 259.206 41.4725 258.802 41.356C258.408 41.2306 258.045 41.0737 257.713 40.8855C257.391 40.6883 257.126 40.4285 256.92 40.1058C256.714 39.7832 256.611 39.3709 256.611 38.8691C256.611 38.3582 256.746 37.8922 257.014 37.471C257.292 37.0408 257.709 36.7002 258.265 36.4493C258.829 36.1894 259.542 36.0594 260.402 36.0594C260.967 36.0594 261.527 36.1311 262.082 36.2745C262.638 36.4179 263.122 36.6241 263.534 36.8929L262.983 38.2507C262.562 37.9997 262.127 37.816 261.679 37.6995C261.231 37.574 260.801 37.5113 260.389 37.5113C259.905 37.5113 259.51 37.5696 259.206 37.6861C258.91 37.8026 258.69 37.9549 258.547 38.1431C258.412 38.3313 258.345 38.5464 258.345 38.7884C258.345 39.0752 258.444 39.3082 258.641 39.4874C258.847 39.6577 259.112 39.7921 259.434 39.8907C259.766 39.9893 260.133 40.0879 260.536 40.1865C260.94 40.2761 261.339 40.3792 261.733 40.4957C262.136 40.6122 262.499 40.7645 262.822 40.9527C263.153 41.1409 263.418 41.3964 263.615 41.719C263.821 42.0416 263.924 42.4494 263.924 42.9423C263.924 43.4442 263.785 43.9102 263.507 44.3404C263.239 44.7616 262.822 45.1022 262.257 45.3621C261.693 45.613 260.98 45.7385 260.12 45.7385Z" fill="white" fill-opacity="0.8"/>
<path d="M271.881 45.7385C271.146 45.7385 270.47 45.6175 269.851 45.3755C269.233 45.1335 268.695 44.7975 268.238 44.3673C267.781 43.9281 267.427 43.4173 267.176 42.8348C266.925 42.2433 266.8 41.598 266.8 40.899C266.8 40.1999 266.925 39.5591 267.176 38.9766C267.427 38.3851 267.781 37.8743 268.238 37.4441C268.695 37.0049 269.233 36.6644 269.851 36.4224C270.47 36.1804 271.142 36.0594 271.868 36.0594C272.603 36.0594 273.275 36.1804 273.884 36.4224C274.503 36.6644 275.04 37.0049 275.497 37.4441C275.954 37.8743 276.308 38.3851 276.559 38.9766C276.81 39.5591 276.936 40.1999 276.936 40.899C276.936 41.598 276.81 42.2433 276.559 42.8348C276.308 43.4263 275.954 43.9371 275.497 44.3673C275.04 44.7975 274.503 45.1335 273.884 45.3755C273.275 45.6175 272.607 45.7385 271.881 45.7385ZM271.868 44.206C272.343 44.206 272.782 44.1253 273.185 43.964C273.588 43.8027 273.938 43.5741 274.234 43.2784C274.529 42.9737 274.758 42.6242 274.919 42.2298C275.09 41.8265 275.175 41.3829 275.175 40.899C275.175 40.415 275.09 39.9759 274.919 39.5815C274.758 39.1782 274.529 38.8287 274.234 38.533C273.938 38.2283 273.588 37.9953 273.185 37.8339C272.782 37.6726 272.343 37.592 271.868 37.592C271.393 37.592 270.954 37.6726 270.55 37.8339C270.156 37.9953 269.806 38.2283 269.502 38.533C269.206 38.8287 268.973 39.1782 268.803 39.5815C268.641 39.9759 268.561 40.415 268.561 40.899C268.561 41.3739 268.641 41.8131 268.803 42.2164C268.973 42.6197 269.206 42.9737 269.502 43.2784C269.798 43.5741 270.147 43.8027 270.55 43.964C270.954 44.1253 271.393 44.206 271.868 44.206Z" fill="white" fill-opacity="0.8"/>
<path d="M280.603 45.604V36.1939H282.041L287.943 43.4397H287.23V36.1939H288.965V45.604H287.526L281.625 38.3582H282.337V45.604H280.603Z" fill="white" fill-opacity="0.8"/>
</svg>
